<svg width="38" height="49" viewBox="0 0 38 49" fill="none" xmlns="http://www.w3.org/2000/svg">
<path d="M6.83999 1.28974L10.16 0.289736C11.6713 -0.166216 13.2969 -0.0565994 14.7333 0.598123C16.1697 1.25284 17.3188 2.40792 17.966 3.84774L20.032 8.44374C20.5887 9.68186 20.7438 11.0632 20.4755 12.394C20.2072 13.7247 19.529 14.9381 18.536 15.8637L14.926 19.2297C14.8814 19.2714 14.8448 19.3209 14.818 19.3757C14.44 20.1477 15.014 22.2097 16.812 25.3257C18.84 28.8377 20.406 30.2257 21.132 30.0117L25.87 28.5617C27.1676 28.1655 28.5566 28.1852 29.8424 28.6181C31.1282 29.051 32.2463 29.8754 33.04 30.9757L35.976 35.0417C36.8978 36.3184 37.3247 37.8863 37.1776 39.4541C37.0305 41.0218 36.3192 42.4829 35.176 43.5657L32.65 45.9557C31.7716 46.7878 30.7049 47.395 29.541 47.7255C28.3772 48.056 27.1506 48.1 25.966 47.8537C18.932 46.3897 12.63 40.7257 7.00599 30.9857C1.37999 21.2397 -0.374007 12.9397 1.88599 6.11374C2.26431 4.97095 2.91214 3.93601 3.77475 3.09637C4.63736 2.25673 5.68941 1.63707 6.84199 1.28974H6.83999ZM7.70799 4.16174C7.01641 4.37004 6.38513 4.74175 5.8675 5.24547C5.34986 5.74918 4.96107 6.37009 4.73399 7.05574C2.78599 12.9377 4.36399 20.4097 9.60399 29.4857C14.84 38.5557 20.516 43.6557 26.576 44.9157C27.2871 45.0636 28.0234 45.0371 28.722 44.8386C29.4207 44.6401 30.0609 44.2754 30.588 43.7757L33.112 41.3877C33.7278 40.8048 34.111 40.0181 34.1905 39.1739C34.2699 38.3297 34.0402 37.4853 33.544 36.7977L30.608 32.7297C30.1807 32.1374 29.5788 31.6935 28.8866 31.4604C28.1944 31.2273 27.4466 31.2166 26.748 31.4297L21.998 32.8837C19.37 33.6657 16.898 31.4757 14.214 26.8237C11.94 22.8877 11.152 20.0437 12.124 18.0577C12.312 17.6737 12.568 17.3277 12.88 17.0357L16.49 13.6697C17.0249 13.1713 17.3902 12.5179 17.5348 11.8012C17.6793 11.0845 17.5958 10.3405 17.296 9.67374L15.23 5.07974C14.8815 4.30426 14.2627 3.68213 13.489 3.32955C12.7154 2.97696 11.8399 2.91802 11.026 3.16374L7.70599 4.16374L7.70799 4.16174Z" fill="black"/>
</svg>
