<svg width="44" height="44" viewBox="0 0 44 44" fill="none" xmlns="http://www.w3.org/2000/svg">
<rect width="44" height="44" fill="#E5E5E5"/>
<g id="Contact">
<rect width="1440" height="3279" transform="translate(-152 -657)" fill="white"/>
<g id="ant-design:clock-circle-outlined">
<path id="Vector" d="M22 0.125C9.91992 0.125 0.125 9.91992 0.125 22C0.125 34.0801 9.91992 43.875 22 43.875C34.0801 43.875 43.875 34.0801 43.875 22C43.875 9.91992 34.0801 0.125 22 0.125ZM22 40.1641C11.9707 40.1641 3.83594 32.0293 3.83594 22C3.83594 11.9707 11.9707 3.83594 22 3.83594C32.0293 3.83594 40.1641 11.9707 40.1641 22C40.1641 32.0293 32.0293 40.1641 22 40.1641Z" fill="black"/>
<path id="Vector_2" d="M30.5303 28.1816L23.5674 23.1474V11.0625C23.5674 10.8477 23.3916 10.6719 23.1768 10.6719H20.8281C20.6133 10.6719 20.4375 10.8477 20.4375 11.0625V24.5097C20.4375 24.6367 20.4961 24.7539 20.5986 24.8271L28.6748 30.7158C28.8506 30.8427 29.0947 30.8037 29.2217 30.6328L30.6181 28.7285C30.7451 28.5478 30.706 28.3037 30.5303 28.1816Z" fill="black"/>
</g>
</g>
</svg>
