<svg width="12" height="22" viewBox="0 0 12 22" fill="none" xmlns="http://www.w3.org/2000/svg">
<rect width="12" height="22" fill="#E5E5E5"/>
<rect width="1440" height="3447" transform="translate(-595 -3363)" fill="white"/>
<path d="M-595 -601H845V84H-595V-601Z" fill="#004A80"/>
<path d="M10.5191 11.9597L11.103 8.11446H7.45234V5.62209C7.42698 5.33565 7.46559 5.04712 7.56532 4.77777C7.66504 4.50842 7.82334 4.26512 8.02854 4.06583C8.23373 3.86653 8.48059 3.71632 8.75091 3.62628C9.02122 3.53624 9.30809 3.50866 9.59036 3.54557H11.25V0.272822C10.2781 0.114301 9.29597 0.0276622 8.31156 0.0135942C7.63267 -0.0387354 6.95069 0.0604195 6.31395 0.304034C5.67721 0.547649 5.10128 0.929762 4.62697 1.4233C4.15265 1.91684 3.79156 2.50974 3.56927 3.15997C3.34698 3.81021 3.26893 4.50189 3.34066 5.18599V8.11446H0V11.9597H3.34066V21.25H7.45234V11.9597H10.5191Z" fill="#F8F8F8"/>
</svg>
