<svg width="32" height="21" viewBox="0 0 32 21" fill="none" xmlns="http://www.w3.org/2000/svg">
<rect width="32" height="21" fill="#E5E5E5"/>
<rect width="1440" height="3447" transform="translate(-751 -3364)" fill="white"/>
<path d="M-751 -602H689V83H-751V-602Z" fill="#004A80"/>
<path d="M30.5969 3.37948C30.4203 2.77431 30.0722 2.22199 29.5874 1.77784C29.1026 1.33368 28.4981 1.01328 27.8345 0.848714C25.3922 0.25 15.6216 0.25 15.6216 0.25C15.6216 0.25 5.85242 0.25 3.4155 0.848714C2.75189 1.01328 2.14741 1.33368 1.66261 1.77784C1.17781 2.22199 0.829686 2.77431 0.653112 3.37948C0.20294 5.65318 -0.0154112 7.9599 0.000844911 10.2702C-0.0154112 12.5805 0.20294 14.8872 0.653112 17.1609C0.830994 17.7611 1.1803 18.3077 1.66551 18.7452C2.15071 19.1826 2.75451 19.4952 3.4155 19.6513C5.85242 20.25 15.6216 20.25 15.6216 20.25C15.6216 20.25 25.3909 20.25 27.8278 19.6513C28.4902 19.4961 29.0955 19.1837 29.5819 18.746C30.0684 18.3082 30.4186 17.7609 30.5969 17.1597C31.0471 14.886 31.2654 12.5793 31.2492 10.269C31.2653 7.95909 31.047 5.65278 30.5969 3.37948ZM12.4262 14.4992V6.04002L20.5923 10.269L12.4262 14.4979V14.4992Z" fill="#F8F8F8"/>
</svg>
