<svg width="24" height="24" viewBox="0 0 24 24" fill="none" xmlns="http://www.w3.org/2000/svg">
<rect width="24" height="24" fill="#E5E5E5"/>
<rect width="1440" height="3447" transform="translate(-695 -3361)" fill="white"/>
<path d="M-695 -599H745V86H-695V-599Z" fill="#004A80"/>
<path d="M5.59307 23.25H0.676619V8.22803H5.59307V23.25ZM3.13258 6.18543C2.56598 6.18882 2.01105 6.03271 1.53798 5.73684C1.0649 5.44097 0.694935 5.01864 0.474873 4.52327C0.254811 4.02789 0.194538 3.48173 0.301678 2.95385C0.408818 2.42597 0.678558 1.9401 1.07678 1.55768C1.475 1.17526 1.98382 0.913481 2.53887 0.805447C3.09392 0.697413 3.67028 0.74798 4.19503 0.950752C4.71979 1.15352 5.16938 1.49939 5.48693 1.94461C5.80449 2.38982 5.97574 2.91439 5.97903 3.45196C5.98344 4.1725 5.68607 4.86522 5.1523 5.37781C4.61853 5.8904 3.89205 6.18089 3.13258 6.18543ZM23.994 23.25H19.0881V15.9378C19.0881 14.1956 19.0504 11.9599 16.5251 11.9599C13.9621 11.9599 13.5776 13.8538 13.5776 15.812V23.25H8.67321V8.22803H13.3876V10.2778H13.457C13.9278 9.51081 14.6093 8.87951 15.4287 8.45125C16.2481 8.02298 17.1747 7.81384 18.1096 7.84612C23.0849 7.84612 24 10.9544 24 14.9981V23.25H23.994Z" fill="#F8F8F8"/>
</svg>
