<svg width="42" height="48" viewBox="0 0 42 48" fill="none" xmlns="http://www.w3.org/2000/svg">
<path d="M6.63365 6.65874C10.4438 2.84855 15.6116 0.708008 21 0.708008C26.3884 0.708008 31.5561 2.84855 35.3663 6.65874C39.1765 10.4689 41.317 15.6367 41.317 21.0251C41.317 26.4135 39.1765 31.5812 35.3663 35.3914L32.5966 38.1307C30.555 40.1327 27.9066 42.7087 24.6493 45.8587C23.6703 46.8053 22.3618 47.3345 21 47.3345C19.6382 47.3345 18.3297 46.8053 17.3506 45.8587L9.20498 37.9347C8.18065 36.9291 7.32432 36.0821 6.63365 35.3914C4.74695 33.5048 3.25033 31.2651 2.22925 28.8001C1.20816 26.3351 0.682617 23.6932 0.682617 21.0251C0.682617 18.357 1.20816 15.715 2.22925 13.25C3.25033 10.785 4.74695 8.5453 6.63365 6.65874ZM32.8906 9.13207C29.7364 5.97847 25.4586 4.20704 20.9983 4.20748C16.538 4.20792 12.2606 5.98019 9.10698 9.13441C5.95338 12.2886 4.18195 16.5664 4.18239 21.0267C4.18283 25.487 5.9551 29.7645 9.10932 32.9181L12.5766 36.3434C14.9718 38.6836 17.3735 41.0169 19.782 43.3434C20.1084 43.6592 20.5447 43.8357 20.9988 43.8357C21.4529 43.8357 21.8893 43.6592 22.2156 43.3434L30.135 35.6434C31.2316 34.5677 32.1486 33.6601 32.8883 32.9181C36.0418 29.7644 37.8134 25.4872 37.8134 21.0274C37.8134 16.5676 36.0418 12.2904 32.8883 9.13674L32.8906 9.13207ZM21 14.6644C21.9198 14.6644 22.8307 14.8456 23.6806 15.1976C24.5304 15.5496 25.3026 16.0656 25.953 16.716C26.6035 17.3665 27.1194 18.1387 27.4714 18.9885C27.8235 19.8383 28.0046 20.7492 28.0046 21.6691C28.0046 22.5889 27.8235 23.4998 27.4714 24.3496C27.1194 25.1995 26.6035 25.9717 25.953 26.6221C25.3026 27.2726 24.5304 27.7885 23.6806 28.1405C22.8307 28.4926 21.9198 28.6737 21 28.6737C19.1647 28.6402 17.4159 27.8876 16.1298 26.5779C14.8437 25.2681 14.1232 23.5059 14.1232 21.6702C14.1232 19.8346 14.8437 18.0724 16.1298 16.7626C17.4159 15.4528 19.1647 14.7002 21 14.6667V14.6644ZM21 18.1644C20.5397 18.1644 20.084 18.2551 19.6588 18.4312C19.2336 18.6073 18.8472 18.8655 18.5218 19.1909C18.1964 19.5163 17.9382 19.9027 17.7621 20.3279C17.586 20.7531 17.4953 21.2088 17.4953 21.6691C17.4953 22.1293 17.586 22.585 17.7621 23.0103C17.9382 23.4355 18.1964 23.8218 18.5218 24.1472C18.8472 24.4727 19.2336 24.7308 19.6588 24.907C20.084 25.0831 20.5397 25.1737 21 25.1737C21.9292 25.1737 22.8203 24.8046 23.4773 24.1476C24.1344 23.4906 24.5035 22.5994 24.5035 21.6702C24.5035 20.7411 24.1344 19.8499 23.4773 19.1929C22.8203 18.5359 21.9292 18.1667 21 18.1667V18.1644Z" fill="black"/>
</svg>
