<svg width="21" height="21" viewBox="0 0 21 21" fill="none" xmlns="http://www.w3.org/2000/svg">
<rect width="21" height="21" fill="#E5E5E5"/>
<rect width="1440" height="3447" transform="translate(-640 -3364)" fill="white"/>
<path d="M-640 -602H800V83H-640V-602Z" fill="#004A80"/>
<path d="M10.75 6.99572C8.958 6.99572 7.4956 8.45812 7.4956 10.2501C7.4956 12.0421 8.958 13.5045 10.75 13.5045C12.542 13.5045 14.0044 12.0421 14.0044 10.2501C14.0044 8.45812 12.542 6.99572 10.75 6.99572ZM20.5107 10.2501C20.5107 8.90246 20.5229 7.56701 20.4473 6.22179C20.3716 4.65929 20.0151 3.27258 18.8726 2.13C17.7275 0.984979 16.3433 0.630975 14.7808 0.555292C13.4331 0.479608 12.0976 0.491815 10.7524 0.491815C9.40478 0.491815 8.06933 0.479608 6.72411 0.555292C5.16161 0.630975 3.7749 0.98742 2.63232 2.13C1.4873 3.27502 1.13329 4.65929 1.05761 6.22179C0.981927 7.56945 0.994134 8.9049 0.994134 10.2501C0.994134 11.5953 0.981927 12.9332 1.05761 14.2784C1.13329 15.8409 1.48974 17.2277 2.63232 18.3702C3.77734 19.5152 5.16161 19.8693 6.72411 19.9449C8.07177 20.0206 9.40722 20.0084 10.7524 20.0084C12.1001 20.0084 13.4355 20.0206 14.7808 19.9449C16.3433 19.8693 17.73 19.5128 18.8726 18.3702C20.0176 17.2252 20.3716 15.8409 20.4473 14.2784C20.5254 12.9332 20.5107 11.5978 20.5107 10.2501ZM10.75 15.2574C7.979 15.2574 5.74267 13.0211 5.74267 10.2501C5.74267 7.47912 7.979 5.24279 10.75 5.24279C13.521 5.24279 15.7573 7.47912 15.7573 10.2501C15.7573 13.0211 13.521 15.2574 10.75 15.2574ZM15.9624 6.20715C15.3154 6.20715 14.793 5.68469 14.793 5.03771C14.793 4.39074 15.3154 3.86828 15.9624 3.86828C16.6094 3.86828 17.1318 4.39074 17.1318 5.03771C17.132 5.19134 17.1019 5.34349 17.0432 5.48546C16.9845 5.62743 16.8984 5.75643 16.7897 5.86506C16.6811 5.97369 16.5521 6.05982 16.4101 6.11852C16.2682 6.17722 16.116 6.20734 15.9624 6.20715Z" fill="white"/>
</svg>
