<svg width="24" height="16" viewBox="0 0 24 16" fill="none" xmlns="http://www.w3.org/2000/svg">
<rect width="24" height="16" fill="#E5E5E5"/>
<rect width="1440" height="3447" transform="translate(-817 -3365)" fill="white"/>
<path d="M-817 -603H623V82H-817V-603Z" fill="#004A80"/>
<path d="M15.8242 1.62207H21.6689V3.04004H15.8242V1.62207ZM9.96777 7.23241C11.2598 6.61425 11.9365 5.67382 11.9365 4.2207C11.9365 1.34668 9.79785 0.649414 7.32812 0.649414H0.53125V15.0752H7.51855C10.1377 15.0752 12.5957 13.8154 12.5957 10.8857C12.5957 9.07519 11.7402 7.73632 9.96777 7.23241ZM3.70117 3.11035H6.67481C7.82031 3.11035 8.84863 3.42968 8.84863 4.75976C8.84863 5.98437 8.04883 6.47656 6.91504 6.47656H3.70117V3.11035ZM7.08496 12.626H3.69824V8.65331H7.15234C8.54688 8.65331 9.42871 9.23632 9.42871 10.7129C9.42871 12.166 8.37695 12.626 7.08496 12.626ZM23.9541 10.0039C23.9541 6.91308 22.1465 4.33789 18.877 4.33789C15.6982 4.33789 13.5361 6.73144 13.5361 9.86913C13.5361 13.1211 15.584 15.3535 18.877 15.3535C21.3701 15.3535 22.9844 14.2314 23.7607 11.8379H21.2324C20.957 12.7314 19.8379 13.2002 18.9678 13.2002C17.2861 13.2002 16.4072 12.2158 16.4072 10.543H23.9336C23.9424 10.3701 23.9541 10.1885 23.9541 10.0039ZM16.4072 8.73241C16.498 7.35839 17.415 6.49999 18.7861 6.49999C20.2275 6.49999 20.9482 7.34667 21.0742 8.73241H16.4072Z" fill="white"/>
</svg>
